
<svg xmlns="http://www.w3.org/2000/svg" version="1.1" xmlns:xlink="http://www.w3.org/1999/xlink" preserveAspectRatio="none" x="0px" y="0px" width="458px" height="800px" viewBox="0 0 458 800">
<defs>
<g id="marche_non_0_Layer12_0_FILL">
<path fill="#9EA7D2" stroke="none" d="
M 159.55 345.9
Q 159.55 341.55 119.4 338.45 79.2 335.35 22.4 335.35 -34.4 335.35 -74.55 338.45 -114.7 341.55 -114.7 345.9 -114.7 350.1 -77.8 353.1 -76.2 353.25 -74.55 353.4 -34.4 356.5 22.4 356.5 79.2 356.5 119.4 353.4 121.05 353.25 122.65 353.1 159.55 350.1 159.55 345.9 Z"/>
</g>

<g id="Dossier_des__l_ments_dupliqu_s_Bras2_0_Layer0_0_MEMBER_0_FILL">
<path fill="#E89C82" stroke="none" d="
M 3594.6 -1266.4
Q 3595 -1262.3 3596 -1257.3 3598 -1247.25 3600.95 -1242.8 3604.15 -1237.95 3615.95 -1224.15 3626.55 -1211.8 3631.25 -1206.95 3635.8 -1202.25 3637.2 -1194.95 3637.7 -1191.45 3637.95 -1190.1 3638.3 -1187.8 3639 -1187 3640.2 -1185.55 3643.5 -1185.6 3647.2 -1185.65 3648.3 -1184.95 3653.1 -1181.85 3658.05 -1183.6 3660.5 -1184.5 3662 -1186
L 3665.1 -1184
Q 3668.8 -1182 3672 -1182 3675.75 -1182 3678 -1185.8 3679.15 -1187.75 3679.5 -1189.65 3679.2 -1186.15 3682.55 -1184.1 3685.8 -1182.1 3687.85 -1183.9 3689.85 -1185.6 3692.45 -1199.1 3695 -1212.7 3694.35 -1218.35 3693.75 -1223.35 3687.9 -1232.25 3683.75 -1238.5 3678.7 -1244.4 3672.45 -1251.8 3655.25 -1263.7 3649.35 -1267.8 3636.8 -1278.35
L 3625.4 -1288.05 3594.6 -1266.4 Z"/>
</g>

<g id="Dossier_des__l_ments_dupliqu_s_Bras2_0_Layer0_0_MEMBER_1_FILL">
<path fill="#FAB99B" stroke="none" d="
M 3597 -1278
Q 3597.5 -1272.75 3599.75 -1266.1 3604.25 -1252.85 3613 -1246 3620.9 -1239.8 3629.5 -1236.75 3637.85 -1233.8 3640 -1232 3649 -1224.5 3651.65 -1222.6 3659.5 -1217 3664 -1217 3669.45 -1217 3672 -1220.6 3674.65 -1224.35 3671 -1228 3664.5 -1234.5 3661 -1238.6 3654.65 -1246.1 3654 -1250 3653.3 -1254.2 3662 -1248.25 3670.2 -1242.65 3676 -1236 3679.5 -1232 3687.4 -1223.1 3693.65 -1215.4 3694.15 -1210.95
L 3694.3 -1213.8
Q 3694.3 -1217.45 3693.45 -1221.25 3690.6 -1233.45 3679.95 -1242.9 3669.35 -1252.35 3645.6 -1271.35
L 3624 -1288.5 3597 -1278 Z"/>
</g>

<g id="Dossier_des__l_ments_dupliqu_s_Bras2_0_Layer0_1_FILL">
<path fill="#9EA7D2" stroke="none" d="
M 3468.8 -1615.85
Q 3458.4 -1619.5 3451.2 -1618.45 3429.55 -1615.25 3419.2 -1591 3415.3 -1581.85 3412.45 -1568.4 3411.25 -1562.65 3408.4 -1545.45 3405.45 -1527.55 3430.65 -1470.35 3436.4 -1457.3 3454.55 -1418.35 3470.45 -1384.2 3478.65 -1364.85 3498 -1319.1 3535.6 -1285.75 3549.6 -1273.25 3563.75 -1264.85 3575.8 -1257.65 3583.05 -1256.05 3593.55 -1253.7 3612.5 -1270.4 3621.95 -1278.75 3629.3 -1287.55 3612.15 -1302.85 3584.25 -1353.75 3558.95 -1399.85 3548.9 -1429.05 3540.25 -1454.05 3530.9 -1494 3521.85 -1532.55 3517.75 -1560.95 3514.05 -1586.35 3489.55 -1604.6 3479.55 -1612.05 3468.8 -1615.85 Z"/>
</g>

<g id="Dossier_des__l_ments_dupliqu_s_pied2_0_Layer0_0_MEMBER_0_FILL">
<path fill="#404040" stroke="none" d="
M 3730 -686.5
Q 3729.4 -687.1 3726.75 -689.1
L 3724.2 -690.95 3536 -644.5 3536 -630.5 3540 -628.5
Q 3545 -626.5 3550 -626.5 3555.55 -626.5 3572.25 -629.75 3587.85 -632.8 3593 -634.5 3602.3 -637.6 3612.4 -640.35 3628.65 -644.85 3637 -645.5 3667.05 -647.8 3686 -654.5 3703.45 -660.65 3722 -675.5 3725.6 -678.4 3728.25 -682.1 3730.8 -685.7 3730 -686.5 Z"/>
</g>

<g id="Dossier_des__l_ments_dupliqu_s_pied2_0_Layer0_0_MEMBER_1_FILL">
<path fill="#FFFFFF" stroke="none" d="
M 3730 -688.5
Q 3729.4 -689.1 3726.75 -691.1
L 3724.2 -692.95 3536 -646.5 3536 -632.5 3540 -630.5
Q 3545 -628.5 3550 -628.5 3555.55 -628.5 3572.25 -631.75 3587.85 -634.8 3593 -636.5 3602.3 -639.6 3612.4 -642.35 3628.65 -646.85 3637 -647.5 3667.05 -649.8 3686 -656.5 3703.45 -662.65 3722 -677.5 3725.6 -680.4 3728.25 -684.1 3730.8 -687.7 3730 -688.5 Z"/>
</g>

<g id="Dossier_des__l_ments_dupliqu_s_pied2_0_Layer0_0_MEMBER_2_FILL">
<path fill="#637081" stroke="none" d="
M 3717 -698.5
Q 3707.75 -696.5 3701.25 -695.1 3688.85 -692.5 3684 -692.5 3676.75 -692.5 3674.15 -692.25 3670.05 -691.85 3668 -690.5 3662 -693.5 3655 -695.5 3650.65 -696.75 3640.4 -700.75
L 3631 -704.5
Q 3539.15 -762.15 3531 -660.5 3531 -658.25 3531.25 -655.35 3531.75 -649.6 3533 -646.5 3534.7 -642.3 3536.4 -641 3538.7 -639.2 3545 -638.5 3551.05 -637.85 3570.75 -640.85 3588.35 -643.6 3595 -645.5 3601.4 -647.35 3618.5 -650.85 3637.55 -654.8 3645 -655.5 3655.95 -656.5 3664.9 -658.25 3678 -660.85 3690 -665.5 3708 -672.5 3723 -687.5 3726 -690.5 3726 -691.5 3725.25 -693.5 3723.75 -695.35 3720.75 -699.1 3717 -698.5 Z"/>
</g>

<g id="marche_non_0_Layer7_0_FILL">
<path fill="#9EA7D2" stroke="none" d="
M 58.95 -13.25
Q 54.75 -24.75 42.95 -31.65 30.15 -38.45 15.6 -40.95 0.1 -43.4 -11.35 -41.8 -23.75 -40.15 -26.2 -34.8 -28.2 -27.05 -25.55 -0.65 -22.35 28.05 -17.65 61.65 -12.4 97.55 -8.65 124.4 -4.45 153.6 -4.75 159.8
L -4.85 164.25
Q -5.25 193.2 -17.85 312.6 -2.05 322.25 54.1 309.9 52.55 303 53.25 286.4 54.25 268.9 56.15 246.95 58.3 224.15 60.05 202.15 62 179.25 62.2 162.4 62.1 152.85 61.3 144.95 60.3 136.5 60.1 133.1 58.95 111.4 58.95 -13.25 Z"/>
</g>

<g id="Dossier_des__l_ments_dupliqu_s_pied1_0_Layer0_0_MEMBER_0_FILL">
<path fill="#404040" stroke="none" d="
M 3258.15 -639.25
Q 3265 -636.25 3275 -631.5 3285.9 -626.65 3291.9 -624.85 3304.35 -621.15 3320 -620.5 3339.15 -619.7 3351.9 -620.75 3366.15 -621.9 3374 -625.5 3380.9 -628.6 3383.65 -631.85 3385 -633.5 3385 -634.5
L 3380 -640.5 3212 -673.5 3207.75 -670.45 3207 -662.5 3208.25 -661.15
Q 3210 -659.45 3212.5 -657.75 3220.5 -652.25 3233 -648.5 3245.55 -644.75 3258.15 -639.25 Z"/>
</g>

<g id="Dossier_des__l_ments_dupliqu_s_pied1_0_Layer0_0_MEMBER_1_FILL">
<path fill="#FFFFFF" stroke="none" d="
M 3258.15 -641.25
Q 3265 -638.25 3275 -633.5 3285.9 -628.65 3291.9 -626.85 3304.35 -623.15 3320 -622.5 3339.15 -621.7 3351.9 -622.75 3366.15 -623.9 3374 -627.5 3380.9 -630.6 3383.65 -633.85 3385 -635.5 3385 -636.5
L 3380 -642.5 3212 -675.5 3207.75 -672.45 3207 -664.5 3208.25 -663.15
Q 3210 -661.45 3212.5 -659.75 3220.5 -654.25 3233 -650.5 3245.55 -646.75 3258.15 -641.25 Z"/>
</g>

<g id="Dossier_des__l_ments_dupliqu_s_pied1_0_Layer0_0_MEMBER_2_FILL">
<path fill="#637081" stroke="none" d="
M 3313.9 -687.35
L 3310 -692.5
Q 3248.45 -776.7 3211 -694.5 3208 -677.5 3207 -674.5 3205.45 -669.85 3217 -665.5 3230.35 -660.5 3249 -652.5 3252.5 -651 3270.75 -641.5 3290 -632.35 3303 -630.5 3339.65 -625.25 3358 -630.5 3365 -632.5 3375.25 -635.25 3382 -637.25 3382 -638.5 3382 -647.5 3376 -649.5 3372.4 -650.7 3366 -653.5
L 3350 -660.5
Q 3341.35 -664.2 3333.9 -669.85 3326.5 -676 3323 -678.5 3318.65 -681.6 3313.9 -687.35 Z"/>
</g>

<g id="marche_non_0_Layer3_0_FILL">
<path fill="#E7EEFE" stroke="none" d="
M 56.05 -64.05
Q 46.5 -116.35 4.55 -117.25 -25.45 -115.25 -39.2 -98.95 -51.45 -79.95 -56 -62.7 -58.55 -45.35 -51.85 -30.65 -43.15 -15.8 -37 -4.65 -33.9 1.85 -31.5 17.4 -29.05 33.95 -27.4 54.05 -25.75 75.05 -25.15 94.25 -24.45 114.35 -25 127.05 -26.25 136.95 -29.25 158.55 -36.7 211.55 -50 297.1 -52.35 314.75 -16.4 315.4 19.6 316.05 24.75 299.25 24.4 295.45 34.3 223.7 45 146.35 46.25 129.85
L 46.75 123.2
Q 49.6 79.85 56.05 -64.05 Z"/>
</g>

<g id="Dossier_des__l_ments_dupliqu_s_Interpoler_1_0_Layer1_0_MEMBER_0_FILL">
<path fill="#FAB99B" stroke="none" d="
M 3444.25 -1829.25
Q 3415.95 -1823.05 3407.5 -1812.5 3399.15 -1802.05 3396.15 -1767.1 3394.9 -1752.85 3395.25 -1740.35 3395.65 -1727.7 3397.5 -1722.5 3400.65 -1713.75 3397.05 -1700.8 3395.95 -1696.75 3394.3 -1692.75
L 3392.85 -1689.6 3467.3 -1636.4 3474.5 -1646
Q 3483.4 -1656.9 3492.15 -1663.15
L 3527.5 -1680.5
Q 3530.5 -1683.5 3530.5 -1688.5 3530.5 -1692.5 3533.15 -1717 3535.3 -1741.25 3533.5 -1748.5 3531.8 -1755.3 3527.65 -1758.35 3525.9 -1759.45 3525.5 -1759.9 3524.85 -1760.5 3525.5 -1761.5 3525.75 -1761.85 3527.2 -1763.45 3528.25 -1764.6 3528.65 -1765.75 3529.7 -1769.2 3526.5 -1777.5 3523.3 -1785.85 3521 -1795 3520 -1799 3518.5 -1806.5 3517.1 -1813.4 3511.4 -1820.25 3502.7 -1830.55 3488.5 -1832.5 3470.4 -1834.95 3444.25 -1829.25 Z"/>
</g>

<g id="Dossier_des__l_ments_dupliqu_s_Interpoler_1_0_Layer1_0_MEMBER_1_MEMBER_0_FILL">
<path fill="#E7EEFE" stroke="none" d="
M 3524.8 -1753.75
Q 3527.35 -1754.5 3529 -1756 3528.55 -1757.25 3527.6 -1758.6 3525.7 -1761.35 3523.4 -1762 3521.05 -1762.6 3517.8 -1759.35
L 3515 -1756
Q 3519.65 -1752.25 3524.8 -1753.75 Z"/>
</g>

<g id="Dossier_des__l_ments_dupliqu_s_Interpoler_1_0_Layer1_0_MEMBER_1_MEMBER_1_FILL">
<path fill="#322A28" stroke="none" d="
M 3528.05 -1758
Q 3528.05 -1760.05 3527.1 -1761.55 3526.15 -1763 3524.75 -1763 3523.4 -1763 3522.45 -1761.55 3521.5 -1760.05 3521.5 -1758 3521.5 -1755.9 3522.45 -1754.45 3523.4 -1753 3524.75 -1753 3526.15 -1753 3527.1 -1754.45 3528.05 -1755.9 3528.05 -1758 Z"/>
</g>

<g id="Dossier_des__l_ments_dupliqu_s_Interpoler_1_0_Layer1_0_MEMBER_1_MEMBER_2_FILL">
<path fill="#E89C82" stroke="none" d="
M 3529 -1756
Q 3528.75 -1758 3527.85 -1760 3525.95 -1764 3522.45 -1764 3518.95 -1764 3516.65 -1760
L 3515 -1756 3517.7 -1759.05
Q 3520.85 -1762.1 3522.9 -1762.05 3525.35 -1762 3526.85 -1760.5 3528.3 -1759.05 3529 -1756 Z"/>
</g>

<g id="Dossier_des__l_ments_dupliqu_s_Interpoler_1_0_Layer1_0_MEMBER_2_FILL">
<path fill="#C4AEAB" stroke="none" d="
M 3428.6 -1830.5
Q 3417.45 -1826.25 3411.95 -1823.35 3403.6 -1819 3398.25 -1813.25 3385.6 -1799.55 3384.2 -1770.5 3382.9 -1743.6 3391.3 -1722.1 3393.95 -1715.4 3397.25 -1710.05 3398.9 -1707.35 3400 -1706
L 3404.2 -1706.95
Q 3408.95 -1708.05 3412 -1709 3418.25 -1710.85 3426.15 -1734.85 3430.05 -1746.85 3432.75 -1758.5
L 3438.05 -1765.85
Q 3444 -1773.6 3447.2 -1775.5 3450.8 -1777.55 3453.15 -1786.75 3455.35 -1795.2 3454.45 -1799.5 3454.3 -1800.25 3450.3 -1809.25 3447.45 -1815.7 3449.3 -1817.5 3453.6 -1821.65 3467.25 -1821.5 3474.5 -1821.4 3485.45 -1820.5 3489.5 -1820.5 3503.65 -1815.4 3516.65 -1810.75 3516.9 -1811.25 3517.15 -1811.8 3516.25 -1814.7 3515.25 -1817.95 3513.45 -1821.2 3508.25 -1830.55 3500.95 -1832.5 3489.05 -1835.65 3469.45 -1836 3444.35 -1836.45 3428.6 -1830.5 Z"/>
</g>

<g id="Dossier_des__l_ments_dupliqu_s_Interpoler_1_0_Layer1_0_MEMBER_3_FILL">
<path fill="#FAB99B" stroke="none" d="
M 3413.25 -1762.6
Q 3405.15 -1760.1 3406.5 -1747.75 3407.6 -1737.7 3413.25 -1727.85 3418.35 -1719.1 3422.05 -1715.35 3426.6 -1710.75 3430.45 -1712.1 3433.9 -1713.3 3435 -1717.45 3435.55 -1719.5 3435.4 -1721.3
L 3434 -1754.25
Q 3431.8 -1757.25 3428.1 -1759.8 3420.7 -1764.9 3413.25 -1762.6 Z"/>
</g>

<g id="Dossier_des__l_ments_dupliqu_s_Interpoler_1_0_Layer1_0_MEMBER_4_FILL">
<path fill="#E89C82" stroke="none" d="
M 3535.9 -1741.2
Q 3533.3 -1745.85 3528.7 -1750.95 3517.55 -1763.3 3511.75 -1762.15 3509.45 -1761.7 3510.1 -1746 3510.75 -1730.25 3513.15 -1728.2 3515.85 -1725.85 3525.7 -1727.7 3536 -1729.6 3537.8 -1733.95 3538.7 -1736.15 3535.9 -1741.2 Z"/>
</g>

<g id="Dossier_des__l_ments_dupliqu_s_Interpoler_1_0_Layer1_0_MEMBER_5_FILL">
<path fill="#D0B9B3" stroke="none" d="
M 3506.75 -1776.75
Q 3505.75 -1779.75 3502 -1781 3496.15 -1782.95 3490.5 -1781.35 3483.35 -1779.35 3482 -1772
L 3486.75 -1773
Q 3492.25 -1774 3496 -1774
L 3507 -1774 3506.75 -1776.75 Z"/>
</g>

<g id="Dossier_des__l_ments_dupliqu_s_Interpoler_1_0_Layer1_0_MEMBER_6_FILL">
<path fill="#D0B9B3" stroke="none" d="
M 3531 -1771
Q 3530.25 -1778.35 3526.25 -1780.35 3523.15 -1781.95 3519.85 -1780 3517.75 -1778.75 3517.2 -1775.75
L 3517.05 -1773 3523.2 -1773
Q 3526.55 -1773 3531 -1771 Z"/>
</g>

<g id="Dossier_des__l_ments_dupliqu_s_Interpoler_1_0_Layer1_0_MEMBER_7_MEMBER_0_FILL">
<path fill="#E7EEFE" stroke="none" d="
M 3484 -1756
Q 3489.3 -1752.25 3495.2 -1753.75 3498.15 -1754.5 3500 -1756 3499.45 -1757.25 3498.4 -1758.6 3496.25 -1761.35 3493.6 -1762 3490.9 -1762.6 3487.2 -1759.35
L 3484 -1756 Z"/>
</g>

<g id="Dossier_des__l_ments_dupliqu_s_Interpoler_1_0_Layer1_0_MEMBER_7_MEMBER_1_FILL">
<path fill="#322A28" stroke="none" d="
M 3498.9 -1758
Q 3498.9 -1760.05 3497.8 -1761.55 3496.75 -1763 3495.2 -1763 3493.65 -1763 3492.55 -1761.55 3491.45 -1760.05 3491.45 -1758 3491.45 -1755.9 3492.55 -1754.45 3493.65 -1753 3495.2 -1753 3496.75 -1753 3497.8 -1754.45 3498.9 -1755.9 3498.9 -1758 Z"/>
</g>

<g id="Dossier_des__l_ments_dupliqu_s_Interpoler_1_0_Layer1_0_MEMBER_7_MEMBER_2_FILL">
<path fill="#E89C82" stroke="none" d="
M 3485.85 -1760
L 3484 -1756 3487.1 -1759.05
Q 3490.65 -1762.1 3493 -1762.05 3498.35 -1762 3500 -1756 3499.75 -1758 3498.65 -1760 3496.5 -1764 3492.5 -1764 3488.5 -1764 3485.85 -1760 Z"/>
</g>

<g id="Dossier_des__l_ments_dupliqu_s_Interpoler_1_0_Layer1_0_MEMBER_8_FILL">
<path fill="#E89C82" stroke="none" d="
M 3469.5 -1686.85
L 3457 -1693
Q 3472.65 -1679.25 3495.4 -1677.75 3506.75 -1677 3515 -1679 3510 -1679 3494 -1680 3484 -1680.6 3469.5 -1686.85 Z"/>
</g>

<g id="Dossier_des__l_ments_dupliqu_s_Interpoler_1_0_Layer1_0_MEMBER_9_FILL">
<path fill="#E89C82" stroke="none" d="
M 3521 -1712
Q 3519.85 -1711.4 3517.5 -1712.1 3514.6 -1713 3514 -1713 3512.75 -1713 3506.25 -1711
L 3500 -1709 3505.5 -1710
Q 3511.5 -1711 3514 -1711 3514.75 -1711 3519.25 -1710.6 3521.8 -1710.4 3523 -1711 3525 -1712 3527 -1712 3525.7 -1713.95 3524 -1713.5
L 3521 -1712 Z"/>
</g>

<g id="Dossier_des__l_ments_dupliqu_s_Interpoler_1_0_Layer1_0_MEMBER_10_FILL">
<path fill="#E89C82" stroke="none" d="
M 3521.25 -1701.35
Q 3522.65 -1703 3520 -1703
L 3515 -1703
Q 3512.8 -1703 3514.65 -1700.6 3516.5 -1698.25 3518 -1699 3520.15 -1700.05 3521.25 -1701.35 Z"/>
</g>

<g id="Dossier_des__l_ments_dupliqu_s_Interpoler_1_0_Layer1_0_MEMBER_11_FILL">
<path fill="#E89C82" stroke="none" d="
M 3496.95 -1744.65
Q 3502.4005859375 -1746.4833984375 3501.65 -1755.25 3501.8125 -1752.76875 3500.65 -1750.25 3498.25 -1745 3491.3 -1744.6
L 3493.1 -1744.3
Q 3495.25 -1744.1 3496.95 -1744.65 Z"/>
</g>

<g id="Dossier_des__l_ments_dupliqu_s_Interpoler_1_0_Layer1_0_MEMBER_12_FILL">
<path fill="#E89C82" stroke="none" d="
M 3421.65 -1749.4
Q 3420.65 -1748.05 3420.1 -1747.05 3417.7 -1743.05 3418.65 -1737.45 3419.8 -1731.1 3423.2 -1728.25 3426 -1726 3428 -1727 3429.4 -1727.7 3429 -1729.75 3428.65 -1731.55 3427 -1734 3425.4 -1736.4 3425 -1740 3424.55 -1743.85 3426 -1746 3427.55 -1748.3 3427.4 -1749.6 3427.2 -1751.05 3425 -1754 3422.9 -1756.8 3418.5 -1757.25 3414.5 -1757.65 3412 -1756 3410.15 -1754.75 3411.9 -1748.25
L 3414 -1742 3412.9 -1748.1
Q 3412.15 -1754.35 3414 -1755 3416.05 -1755.7 3418.75 -1754.1 3421.15 -1752.75 3422 -1751 3422.3 -1750.4 3421.65 -1749.4 Z"/>
</g>

<g id="Dossier_des__l_ments_dupliqu_s_Interpoler_1_0_Layer0_0_FILL">
<path fill="#E7EEFE" stroke="none" d="
M 3427.25 -1687.35
Q 3419.45 -1690.9 3411.2 -1694.05
L 3404.5 -1696.5 3395.5 -1679.5 3413.2 -1657
Q 3434.55 -1630.4 3452.7 -1609.8 3510.8 -1543.8 3515.5 -1562.5 3516.5 -1566.45 3512.75 -1574 3511.15 -1577.2 3504.05 -1588.9 3498 -1598.9 3495.6 -1604.85 3492.1 -1613.55 3493.5 -1619.5 3496 -1630.1 3493.5 -1641.35 3492.25 -1647 3490.5 -1650.5
L 3485.5 -1642.5
Q 3484.5 -1644 3481.25 -1647.6 3474.75 -1654.85 3463.5 -1665.5 3452.25 -1676.1 3427.25 -1687.35 Z"/>
</g>

<g id="Dossier_des__l_ments_dupliqu_s_Interpoler_1_0_Layer0_1_FILL">
<path fill="#9EA7D2" stroke="none" d="
M 3481.25 -1622.35
L 3478 -1618
Q 3460 -1634 3450 -1643 3443.75 -1648.6 3419.7 -1665.95
L 3396.9 -1682.15 3434.3 -1646.25
Q 3472.1 -1610.5 3473.9 -1611.4 3476.85 -1612.8 3485 -1622
L 3490 -1613 3490.4 -1614.75
Q 3490.65 -1617.25 3490 -1621 3489.4 -1624.75 3487.65 -1628.75 3486.75 -1630.75 3486 -1632 3484.75 -1627.6 3481.25 -1622.35 Z"/>
</g>

<g id="Dossier_des__l_ments_dupliqu_s_Interpoler_1_0_Layer0_2_FILL">
<path fill="#322A28" stroke="none" d="
M 3387.7 -1681.15
Q 3377.85 -1677.35 3367.65 -1670.15 3335 -1647.2 3311.05 -1598.95 3296.15 -1568.8 3295.55 -1524.65 3295.05 -1489.75 3303.7 -1442.65 3307.35 -1422.85 3320.2 -1367.35 3329.4 -1327.8 3329.75 -1313.15 3330.3 -1289.95 3332.75 -1254.2
L 3335.15 -1223.1 3336.9 -1221.15
Q 3339.95 -1218.75 3346.6 -1216.8 3367.75 -1210.5 3416.5 -1210.5 3465.25 -1210.5 3502.75 -1220.5 3521.5 -1225.5 3530.5 -1230.5
L 3534 -1256
Q 3538.5 -1286.5 3543.5 -1311.5 3549.6 -1341.9 3548.75 -1399.25 3547.9 -1457.45 3540.5 -1497.5 3534.25 -1531.25 3520.25 -1559.75 3513.25 -1574 3507.5 -1581.5 3467.05 -1624.15 3453 -1637 3444.3 -1644.9 3419 -1665
L 3395.5 -1683.5
Q 3392.6 -1683.05 3387.7 -1681.15 Z"/>
</g>

<g id="Dossier_des__l_ments_dupliqu_s_Interpoler_1_0_Layer0_3_FILL">
<path fill="#322A28" stroke="none" d="
M 3494.05 -1622.25
Q 3494.1 -1616.15 3488.05 -1607.95
L 3482 -1601 3489.25 -1589.1
Q 3497.85 -1575.2 3504.65 -1565.1 3526.4 -1532.85 3522 -1551 3517.65 -1569.1 3505.7 -1603.2 3499.7 -1620.25 3494.6 -1633.65 3494 -1632 3494.05 -1622.25 Z"/>
</g>

<g id="Dossier_des__l_ments_dupliqu_s_bras1_0_Layer0_0_MEMBER_0_FILL">
<path fill="#FAB99B" stroke="none" d="
M 3474.8 -1248.75
Q 3474.75 -1244.45 3475.15 -1239.1 3476 -1228.5 3478.5 -1223.5 3480.4 -1219.7 3492.4 -1202.6 3503.95 -1186.15 3505.5 -1182.5 3507.1 -1178.7 3507.4 -1169 3507.6 -1159.8 3508.5 -1158.5 3509.55 -1156.9 3514.4 -1157.7 3519.45 -1158.5 3520.5 -1157.5 3523.3 -1154.7 3528.95 -1156.05 3531.75 -1156.75 3534 -1158 3533.95 -1157.6 3534 -1157.05 3534.1 -1155.95 3534.65 -1155 3536.4 -1152 3542 -1152 3547.65 -1152 3551.15 -1155.25 3552.9 -1156.85 3553.5 -1158.5 3552.8 -1154.9 3556 -1152.35 3559.15 -1149.9 3561.5 -1151.5 3563.8 -1153 3568.15 -1166.75 3572.5 -1180.55 3572.5 -1186.5 3572.5 -1191.75 3567.5 -1201.75 3564 -1208.75 3559.5 -1215.5 3553.85 -1223.95 3537.5 -1238.5 3531.9 -1243.5 3520.15 -1256
L 3509.5 -1267.5 3474.8 -1248.75 Z"/>
</g>

<g id="Dossier_des__l_ments_dupliqu_s_bras1_0_Layer0_0_MEMBER_1_FILL">
<path fill="#E7EEFE" stroke="none" d="
M 3332.8 -1607.9
Q 3327.6 -1598.9 3323 -1585.3 3321 -1579.4 3315.9 -1561.9 3310.6 -1543.7 3329.75 -1481.1 3334.05 -1466.9 3348.1 -1424.1 3360.4 -1386.65 3366.5 -1365.5 3380.95 -1315.55 3415.9 -1276.25 3428.9 -1261.55 3442.6 -1251.05 3454.2 -1242.1 3461.5 -1239.5 3472.15 -1235.75 3493.9 -1250.75 3504.75 -1258.25 3513.5 -1266.5 3497.55 -1284.55 3474.9 -1340.85 3454.3 -1391.95 3447.5 -1423.5 3441.65 -1450.65 3436.9 -1493.25 3432.25 -1534.5 3431.5 -1564.5 3430.8 -1591.35 3407.6 -1613.35 3398.1 -1622.3 3387.45 -1627.6 3377.1 -1632.7 3369.5 -1632.5 3346.55 -1631.85 3332.8 -1607.9 Z"/>
</g>

<g id="bouton2_0_Layer4_0_FILL">
<path fill="#004A98" stroke="none" d="
M 56.1 -3.9
L 14.85 -3.9
Q 6.8 -3.9 1.1 1.8 -4.6 7.5 -4.6 15.55
L -4.6 15.6
Q -4.6 23.65 1.1 29.35 6.8 35.05 14.85 35.05
L 56.1 35.05
Q 64.15 35.05 69.85 29.35 75.55 23.65 75.55 15.6
L 75.55 15.55
Q 75.55 7.5 69.85 1.8 64.15 -3.9 56.1 -3.9 Z"/>
</g>

<g id="Rond_0_Layer0_0_FILL">
<path fill="#FFFFFF" stroke="none" d="
M 31.5 15.75
Q 31.5 9.25 26.85 4.6 22.25 0 15.75 0 9.25 0 4.6 4.6 0 9.25 0 15.75 0 22.25 4.6 26.85 9.25 31.5 15.75 31.5 22.25 31.5 26.85 26.85 31.5 22.25 31.5 15.75 Z"/>
</g>
</defs>

<g transform="matrix( 1, 0, 0, 1, 199.8,418.75) ">
<g transform="matrix( 1, 0, 0, 1, 0,0) ">
<use xlink:href="#marche_non_0_Layer12_0_FILL"/>
</g>

<g transform="matrix( 0.460845947265625, 0.3362884521484375, -0.3362884521484375, 0.460845947265625, 21.85,-232.15) ">
<g transform="matrix( 1, 0, 0, 1, -3408.1,1618.7) ">
<use xlink:href="#Dossier_des__l_ments_dupliqu_s_Bras2_0_Layer0_0_MEMBER_0_FILL"/>
</g>

<g transform="matrix( 1, 0, 0, 1, -3408.1,1618.7) ">
<use xlink:href="#Dossier_des__l_ments_dupliqu_s_Bras2_0_Layer0_0_MEMBER_1_FILL"/>
</g>

<g transform="matrix( 1, 0, 0, 1, -3408.1,1618.7) ">
<use xlink:href="#Dossier_des__l_ments_dupliqu_s_Bras2_0_Layer0_1_FILL"/>
</g>
</g>

<g transform="matrix( 0.56475830078125, 0.0868682861328125, -0.0868682861328125, 0.56475830078125, -7.65,309.95) ">
<g transform="matrix( 1, 0, 0, 1, -3531,704.5) ">
<use xlink:href="#Dossier_des__l_ments_dupliqu_s_pied2_0_Layer0_0_MEMBER_0_FILL"/>
</g>

<g transform="matrix( 1, 0, 0, 1, -3531,704.5) ">
<use xlink:href="#Dossier_des__l_ments_dupliqu_s_pied2_0_Layer0_0_MEMBER_1_FILL"/>
</g>

<g transform="matrix( 1, 0, 0, 1, -3531,704.5) ">
<use xlink:href="#Dossier_des__l_ments_dupliqu_s_pied2_0_Layer0_0_MEMBER_2_FILL"/>
</g>
</g>

<g transform="matrix( 1, 0, 0, 1, 0,0) ">
<use xlink:href="#marche_non_0_Layer7_0_FILL"/>
</g>

<g transform="matrix( 0.565582275390625, -0.0814208984375, 0.0814208984375, 0.565582275390625, -53,329.3) ">
<g transform="matrix( 1, 0, 0, 1, -3206.8,694.5) ">
<use xlink:href="#Dossier_des__l_ments_dupliqu_s_pied1_0_Layer0_0_MEMBER_0_FILL"/>
</g>

<g transform="matrix( 1, 0, 0, 1, -3206.8,694.5) ">
<use xlink:href="#Dossier_des__l_ments_dupliqu_s_pied1_0_Layer0_0_MEMBER_1_FILL"/>
</g>

<g transform="matrix( 1, 0, 0, 1, -3206.8,694.5) ">
<use xlink:href="#Dossier_des__l_ments_dupliqu_s_pied1_0_Layer0_0_MEMBER_2_FILL"/>
</g>
</g>

<g transform="matrix( 1, 0, 0, 1, 0,0) ">
<use xlink:href="#marche_non_0_Layer3_0_FILL"/>
</g>

<g transform="matrix( 1, 0, 0, 1, -56.35,-342.85) ">
<g transform="matrix( 0.5680694580078125, 0.061676025390625, -0.061676025390625, 0.5680694580078125, 74.85,178.7) ">
<g transform="matrix( 0.9926605224609375, -0.1209259033203125, 0.1209259033203125, 0.9926605224609375, -3184.35,1934.05) ">
<use xlink:href="#Dossier_des__l_ments_dupliqu_s_Interpoler_1_0_Layer1_0_MEMBER_0_FILL"/>
</g>

<g transform="matrix( 0.9926605224609375, -0.1209259033203125, 0.1209259033203125, 0.9926605224609375, -3184.35,1934.05) ">
<use xlink:href="#Dossier_des__l_ments_dupliqu_s_Interpoler_1_0_Layer1_0_MEMBER_1_MEMBER_0_FILL"/>
</g>

<g transform="matrix( 0.9926605224609375, -0.1209259033203125, 0.1209259033203125, 0.9926605224609375, -3184.35,1934.05) ">
<use xlink:href="#Dossier_des__l_ments_dupliqu_s_Interpoler_1_0_Layer1_0_MEMBER_1_MEMBER_1_FILL"/>
</g>

<g transform="matrix( 0.9926605224609375, -0.1209259033203125, 0.1209259033203125, 0.9926605224609375, -3184.35,1934.05) ">
<use xlink:href="#Dossier_des__l_ments_dupliqu_s_Interpoler_1_0_Layer1_0_MEMBER_1_MEMBER_2_FILL"/>
</g>

<g transform="matrix( 0.9926605224609375, -0.1209259033203125, 0.1209259033203125, 0.9926605224609375, -3184.35,1934.05) ">
<use xlink:href="#Dossier_des__l_ments_dupliqu_s_Interpoler_1_0_Layer1_0_MEMBER_2_FILL"/>
</g>

<g transform="matrix( 0.9926605224609375, -0.1209259033203125, 0.1209259033203125, 0.9926605224609375, -3184.35,1934.05) ">
<use xlink:href="#Dossier_des__l_ments_dupliqu_s_Interpoler_1_0_Layer1_0_MEMBER_3_FILL"/>
</g>

<g transform="matrix( 0.9926605224609375, -0.1209259033203125, 0.1209259033203125, 0.9926605224609375, -3184.35,1934.05) ">
<use xlink:href="#Dossier_des__l_ments_dupliqu_s_Interpoler_1_0_Layer1_0_MEMBER_4_FILL"/>
</g>

<g transform="matrix( 0.9926605224609375, -0.1209259033203125, 0.1209259033203125, 0.9926605224609375, -3184.35,1934.05) ">
<use xlink:href="#Dossier_des__l_ments_dupliqu_s_Interpoler_1_0_Layer1_0_MEMBER_5_FILL"/>
</g>

<g transform="matrix( 0.9926605224609375, -0.1209259033203125, 0.1209259033203125, 0.9926605224609375, -3184.35,1934.05) ">
<use xlink:href="#Dossier_des__l_ments_dupliqu_s_Interpoler_1_0_Layer1_0_MEMBER_6_FILL"/>
</g>

<g transform="matrix( 0.9926605224609375, -0.1209259033203125, 0.1209259033203125, 0.9926605224609375, -3184.35,1934.05) ">
<use xlink:href="#Dossier_des__l_ments_dupliqu_s_Interpoler_1_0_Layer1_0_MEMBER_7_MEMBER_0_FILL"/>
</g>

<g transform="matrix( 0.9926605224609375, -0.1209259033203125, 0.1209259033203125, 0.9926605224609375, -3184.35,1934.05) ">
<use xlink:href="#Dossier_des__l_ments_dupliqu_s_Interpoler_1_0_Layer1_0_MEMBER_7_MEMBER_1_FILL"/>
</g>

<g transform="matrix( 0.9926605224609375, -0.1209259033203125, 0.1209259033203125, 0.9926605224609375, -3184.35,1934.05) ">
<use xlink:href="#Dossier_des__l_ments_dupliqu_s_Interpoler_1_0_Layer1_0_MEMBER_7_MEMBER_2_FILL"/>
</g>

<g transform="matrix( 0.9926605224609375, -0.1209259033203125, 0.1209259033203125, 0.9926605224609375, -3184.35,1934.05) ">
<use xlink:href="#Dossier_des__l_ments_dupliqu_s_Interpoler_1_0_Layer1_0_MEMBER_8_FILL"/>
</g>

<g transform="matrix( 0.9926605224609375, -0.1209259033203125, 0.1209259033203125, 0.9926605224609375, -3184.35,1934.05) ">
<use xlink:href="#Dossier_des__l_ments_dupliqu_s_Interpoler_1_0_Layer1_0_MEMBER_9_FILL"/>
</g>

<g transform="matrix( 0.9926605224609375, -0.1209259033203125, 0.1209259033203125, 0.9926605224609375, -3184.35,1934.05) ">
<use xlink:href="#Dossier_des__l_ments_dupliqu_s_Interpoler_1_0_Layer1_0_MEMBER_10_FILL"/>
</g>

<g transform="matrix( 0.9926605224609375, -0.1209259033203125, 0.1209259033203125, 0.9926605224609375, -3184.35,1934.05) ">
<use xlink:href="#Dossier_des__l_ments_dupliqu_s_Interpoler_1_0_Layer1_0_MEMBER_11_FILL"/>
</g>

<g transform="matrix( 0.9926605224609375, -0.1209259033203125, 0.1209259033203125, 0.9926605224609375, -3184.35,1934.05) ">
<use xlink:href="#Dossier_des__l_ments_dupliqu_s_Interpoler_1_0_Layer1_0_MEMBER_12_FILL"/>
</g>

<g transform="matrix( 1, 0, 0, 1, -3424.85,1523.3) ">
<use xlink:href="#Dossier_des__l_ments_dupliqu_s_Interpoler_1_0_Layer0_0_FILL"/>
</g>

<g transform="matrix( 1, 0, 0, 1, -3424.85,1523.3) ">
<use xlink:href="#Dossier_des__l_ments_dupliqu_s_Interpoler_1_0_Layer0_1_FILL"/>
</g>

<g transform="matrix( 1, 0, 0, 1, -3424.85,1523.3) ">
<use xlink:href="#Dossier_des__l_ments_dupliqu_s_Interpoler_1_0_Layer0_2_FILL"/>
</g>

<g transform="matrix( 1, 0, 0, 1, -3424.85,1523.3) ">
<use xlink:href="#Dossier_des__l_ments_dupliqu_s_Interpoler_1_0_Layer0_3_FILL"/>
</g>
</g>
</g>

<g transform="matrix( 0.52899169921875, 0.2160491943359375, -0.2160491943359375, 0.52899169921875, -38.1,-234.6) ">
<g transform="matrix( 1, 0, 0, 1, -3314.75,1632.5) ">
<use xlink:href="#Dossier_des__l_ments_dupliqu_s_bras1_0_Layer0_0_MEMBER_0_FILL"/>
</g>

<g transform="matrix( 1, 0, 0, 1, -3314.75,1632.5) ">
<use xlink:href="#Dossier_des__l_ments_dupliqu_s_bras1_0_Layer0_0_MEMBER_1_FILL"/>
</g>
</g>
</g>

<g id="bouton1" transform="matrix( 1, 0, 0, 1, 191.35,22.7) ">
<g transform="matrix( 1, 0, 0, 1, 0,0) ">
<use xlink:href="#bouton2_0_Layer4_0_FILL"/>
</g>

<g transform="matrix( 1, 0, 0, 1, 0,0) ">
<g transform="matrix( 1, 0, 0, 1, 0,0) ">
<use xlink:href="#Rond_0_Layer0_0_FILL"/>
</g>
</g>

<g transform="matrix( 1, 0, 0, 1, -60.8,0.6) ">
<g transform="matrix( 1, 0, 0, 1, 2,2) ">
<clipPath id="Mask_Mask_1">
<rect x="-2" y="-2" width="50.95" height="34.45" fill="#FFFFFF" stroke="none"/>
</clipPath>

<text clip-path="url(#Mask_Mask_1)" writing-mode="lr"><tspan x="0" y="24.1" baseline-shift="0%" font-family="Roboto Bold" font-weight="bold" font-size="26" fill="#333333" xml:space="preserve">OFF</tspan></text>
</g>
</g>
</g>
</svg>
